<?xml version="1.0" encoding="utf-8"?>
<svg version="1.0" width="163.000000pt" height="161.000000pt" viewBox="0 0 163.000000 161.000000" preserveAspectRatio="xMidYMid meet" xmlns="http://www.w3.org/2000/svg">
  <g transform="translate(0.000000,161.000000) scale(0.100000,-0.100000)" fill="#000000" stroke="none">
    <ellipse style="fill: rgb(125, 125, 125); stroke: rgb(125, 125, 125); stroke-width: 20px;" cx="819.41" cy="-440.8" rx="78.81" ry="79.21" transform="matrix(1, 0, 0, -1, 0, 0)"/>
    <path d="M 937.506 1196.992 C 998.007 1171.496 1033.299 1147.096 1056 1098 C 1088.364 1031.213 1080 973 1054 924 C 1030 878 1003 849 918 775 C 879 742 847.828 723.696 848.027 629.817 C 848.03 628.544 845 629.013 810 629.013 C 771 629.013 771.458 628.015 771.43 628.953 C 768.569 724.11 804 783 838 813 C 853 827 884 855 908 875 C 931.994 896 994.024 941.945 996.811 996.384 C 1000.295 1064.448 966.678 1094.61 911.297 1119.241 C 860.762 1141.716 792.725 1135.963 749.818 1116.212 C 728.202 1106.262 679.333 1080.242 664.091 1072.697 C 649.62 1101.547 642.01 1115.552 625.186 1149.045 C 672.348 1175.126 718.076 1201.243 760.358 1209.722 C 824.293 1222.543 884.972 1219.131 937.506 1196.992 Z" style="fill-rule: nonzero; fill: rgb(125, 125, 125); paint-order: fill; stroke: rgb(125, 125, 125); stroke-width: 40px;"/>
    <ellipse style="paint-order: stroke; fill-opacity: 0; fill: rgb(125, 125, 125); stroke: rgb(125, 125, 125); stroke-width: 110px;" transform="matrix(1, 0, 0, -1, 0, 0)" cx="814.107" cy="-797.812" rx="730.167" ry="730.167"/>
  </g>
</svg>